#N canvas 247 154 809 526 10;
#X msg 204 328 disconnect;
#X floatatom 78 388 0 0 0 0 - - -;
#X obj 127 393 print backward;
#X obj 91 250 list prepend send;
#X obj 86 280 list trim;
#X msg 210 360 connect localhost 8000;
#X obj 78 361 netsend -u -b;
#X floatatom 198 47 3 0 0 0 - - -, f 3;
#X floatatom 168 46 3 0 0 0 - - -, f 3;
#X obj 168 21 ctlin 0;
#X floatatom 327 46 3 0 0 0 - - -, f 3;
#X floatatom 297 45 3 0 0 0 - - -, f 3;
#X obj 297 20 ctlin 16;
#X obj 296 68 / 127;
#X obj 100 214 oscformat /osc;
#X obj 106 165 pack f f f f f f f;
#X obj 105 110 bng 15 250 50 0 empty empty empty 17 7 0 10 -262144
-1 -1;
#X floatatom 419 46 3 0 0 0 - - -, f 3;
#X floatatom 389 45 3 0 0 0 - - -, f 3;
#X obj 388 68 / 127;
#X obj 389 20 ctlin 17;
#X connect 0 0 6 0;
#X connect 3 0 4 0;
#X connect 4 0 6 0;
#X connect 5 0 6 0;
#X connect 6 0 1 0;
#X connect 6 1 2 0;
#X connect 8 0 15 1;
#X connect 9 0 8 0;
#X connect 9 0 16 0;
#X connect 9 1 7 0;
#X connect 11 0 13 0;
#X connect 12 0 11 0;
#X connect 12 0 16 0;
#X connect 12 1 10 0;
#X connect 13 0 15 2;
#X connect 14 0 3 0;
#X connect 15 0 14 0;
#X connect 16 0 15 0;
#X connect 18 0 19 0;
#X connect 19 0 15 3;
#X connect 20 0 18 0;
#X connect 20 0 16 0;
#X connect 20 1 17 0;
